<?xml version="1.0" encoding="UTF-8" standalone="no"?>
<svg width="549px" height="351px" viewBox="0 0 549 351" version="1.1" xmlns="http://www.w3.org/2000/svg" xmlns:xlink="http://www.w3.org/1999/xlink" xmlns:sketch="http://www.bohemiancoding.com/sketch/ns">
    <!-- Generator: Sketch 3.4.2 (15857) - http://www.bohemiancoding.com/sketch -->
    <title>Artboard 1</title>
    <desc>Created with Sketch.</desc>
    <defs>
        <ellipse id="path-1" cx="130.446411" cy="31" rx="16.9946809" ry="16.9565217"></ellipse>
        <ellipse id="path-3" cx="363.446411" cy="31" rx="16.9946809" ry="16.9565217"></ellipse>
        <ellipse id="path-5" cx="363.994681" cy="102.956522" rx="16.9946809" ry="16.9565217"></ellipse>
        <ellipse id="path-7" cx="130.994681" cy="102.956522" rx="16.9946809" ry="16.9565217"></ellipse>
        <ellipse id="path-9" cx="363.446411" cy="175" rx="16.9946809" ry="16.9565217"></ellipse>
        <ellipse id="path-11" cx="363.994681" cy="246.956522" rx="16.9946809" ry="16.9565217"></ellipse>
        <ellipse id="path-13" cx="130.994681" cy="246.956522" rx="16.9946809" ry="16.9565217"></ellipse>
        <ellipse id="path-15" cx="130.446411" cy="319" rx="16.9946809" ry="16.9565217"></ellipse>
        <ellipse id="path-17" cx="363.446411" cy="319" rx="16.9946809" ry="16.9565217"></ellipse>
        <filter x="-50%" y="-50%" width="200%" height="200%" filterUnits="objectBoundingBox" id="filter-19">
            <feOffset dx="0" dy="8" in="SourceAlpha" result="shadowOffsetOuter1"></feOffset>
            <feGaussianBlur stdDeviation="6.5" in="shadowOffsetOuter1" result="shadowBlurOuter1"></feGaussianBlur>
            <feColorMatrix values="0 0 0 0 0   0 0 0 0 0   0 0 0 0 0  0 0 0 0.0922356205 0" in="shadowBlurOuter1" type="matrix" result="shadowMatrixOuter1"></feColorMatrix>
            <feMerge>
                <feMergeNode in="shadowMatrixOuter1"></feMergeNode>
                <feMergeNode in="SourceGraphic"></feMergeNode>
            </feMerge>
        </filter>
        <circle id="path-20" cx="69.5" cy="174.5" r="37.5"></circle>
    </defs>
    <g id="Page-1" stroke="none" stroke-width="1" fill="none" fill-rule="evenodd" sketch:type="MSPage">
        <g id="Artboard-1" sketch:type="MSArtboardGroup">
            <rect id="Rectangle-4" fill="#033457" sketch:type="MSShapeGroup" x="99" y="5" width="213" height="52" rx="7"></rect>
            <mask id="mask-2" sketch:name="Mask" fill="white">
                <use xlink:href="#path-1"></use>
            </mask>
            <use id="Mask" fill="#1F5780" sketch:type="MSShapeGroup" xlink:href="#path-1"></use>
            <path d="M144.926554,47.6440678 L144.926554,47.6440678 C144.926554,48.3898305 144.316384,49 143.570621,49 L117.355932,49 C116.610169,49 116,48.3898305 116,47.6440678 L116,47.6440678 L116,47.6440678 C116,47.6440678 116,42.6949153 119.615819,40.9096045 C121.898305,39.779661 121.016949,40.7062147 123.819209,39.5310734 C126.621469,38.3785311 127.299435,37.9717514 127.299435,37.9717514 L127.322034,35.3050847 C127.322034,35.3050847 126.282486,34.4915254 125.943503,31.9830508 C125.288136,32.1638418 125.062147,31.2146893 125.039548,30.6045198 C124.99435,30.0169492 124.655367,28.1638418 125.468927,28.3220339 C125.310734,27.079096 125.19774,25.9717514 125.242938,25.3841808 C125.446328,23.3050847 127.435028,21.1581921 130.508475,21 C134.124294,21.1581921 135.548023,23.3276836 135.751412,25.3841808 C135.819209,25.9717514 135.683616,27.079096 135.525424,28.3220339 C136.316384,28.1638418 135.977401,29.9943503 135.932203,30.6045198 C135.887006,31.2146893 135.683616,32.1864407 135.028249,31.9830508 C134.689266,34.4915254 133.649718,35.3050847 133.649718,35.3050847 L133.627119,37.9265537 C133.627119,37.9265537 134.282486,38.3107345 137.084746,39.4632768 C139.887006,40.6158192 139.00565,39.7570621 141.288136,40.8870056 C144.926554,42.6949153 144.926554,47.6440678 144.926554,47.6440678 L144.926554,47.6440678 L144.926554,47.6440678 Z" id="Shape" fill="#66A6D4" sketch:type="MSShapeGroup" mask="url(#mask-2)"></path>
            <rect id="Rectangle-22" fill="#66A6D4" sketch:type="MSShapeGroup" x="158" y="29" width="109" height="5"></rect>
            <rect id="Rectangle-22" fill="#1F5780" sketch:type="MSShapeGroup" x="158" y="40" width="58" height="5"></rect>
            <rect id="Rectangle-22" fill="#1F5780" sketch:type="MSShapeGroup" x="158" y="18" width="70" height="5"></rect>
            <rect id="Rectangle-4" fill="#23587F" sketch:type="MSShapeGroup" x="332" y="5" width="213" height="52" rx="7"></rect>
            <mask id="mask-4" sketch:name="Mask" fill="white">
                <use xlink:href="#path-3"></use>
            </mask>
            <use id="Mask" fill="#05395F" sketch:type="MSShapeGroup" xlink:href="#path-3"></use>
            <path d="M377.926554,47.6440678 L377.926554,47.6440678 C377.926554,48.3898305 377.316384,49 376.570621,49 L350.355932,49 C349.610169,49 349,48.3898305 349,47.6440678 L349,47.6440678 L349,47.6440678 C349,47.6440678 349,42.6949153 352.615819,40.9096045 C354.898305,39.779661 354.016949,40.7062147 356.819209,39.5310734 C359.621469,38.3785311 360.299435,37.9717514 360.299435,37.9717514 L360.322034,35.3050847 C360.322034,35.3050847 359.282486,34.4915254 358.943503,31.9830508 C358.288136,32.1638418 358.062147,31.2146893 358.039548,30.6045198 C357.99435,30.0169492 357.655367,28.1638418 358.468927,28.3220339 C358.310734,27.079096 358.19774,25.9717514 358.242938,25.3841808 C358.446328,23.3050847 360.435028,21.1581921 363.508475,21 C367.124294,21.1581921 368.548023,23.3276836 368.751412,25.3841808 C368.819209,25.9717514 368.683616,27.079096 368.525424,28.3220339 C369.316384,28.1638418 368.977401,29.9943503 368.932203,30.6045198 C368.887006,31.2146893 368.683616,32.1864407 368.028249,31.9830508 C367.689266,34.4915254 366.649718,35.3050847 366.649718,35.3050847 L366.627119,37.9265537 C366.627119,37.9265537 367.282486,38.3107345 370.084746,39.4632768 C372.887006,40.6158192 372.00565,39.7570621 374.288136,40.8870056 C377.926554,42.6949153 377.926554,47.6440678 377.926554,47.6440678 L377.926554,47.6440678 L377.926554,47.6440678 Z" id="Shape" fill="#66A6D4" sketch:type="MSShapeGroup" mask="url(#mask-4)"></path>
            <rect id="Rectangle-22" fill="#05395F" sketch:type="MSShapeGroup" x="391" y="29" width="109" height="5"></rect>
            <rect id="Rectangle-22" fill="#05395F" sketch:type="MSShapeGroup" x="391" y="40" width="58" height="5"></rect>
            <rect id="Rectangle-22" fill="#66A6D4" sketch:type="MSShapeGroup" x="391" y="18" width="70" height="5"></rect>
            <rect id="Rectangle-4" fill="#033457" sketch:type="MSShapeGroup" x="332" y="77" width="213" height="52" rx="7"></rect>
            <mask id="mask-6" sketch:name="Mask" fill="white">
                <use xlink:href="#path-5"></use>
            </mask>
            <use id="Mask" fill="#1F5780" sketch:type="MSShapeGroup" xlink:href="#path-5"></use>
            <path d="M377.926554,119.644068 L377.926554,119.644068 C377.926554,120.389831 377.316384,121 376.570621,121 L350.355932,121 C349.610169,121 349,120.389831 349,119.644068 L349,119.644068 L349,119.644068 C349,119.644068 349,114.694915 352.615819,112.909605 C354.898305,111.779661 354.016949,112.706215 356.819209,111.531073 C359.621469,110.378531 360.299435,109.971751 360.299435,109.971751 L360.322034,107.305085 C360.322034,107.305085 359.282486,106.491525 358.943503,103.983051 C358.288136,104.163842 358.062147,103.214689 358.039548,102.60452 C357.99435,102.016949 357.655367,100.163842 358.468927,100.322034 C358.310734,99.079096 358.19774,97.9717514 358.242938,97.3841808 C358.446328,95.3050847 360.435028,93.1581921 363.508475,93 C367.124294,93.1581921 368.548023,95.3276836 368.751412,97.3841808 C368.819209,97.9717514 368.683616,99.079096 368.525424,100.322034 C369.316384,100.163842 368.977401,101.99435 368.932203,102.60452 C368.887006,103.214689 368.683616,104.186441 368.028249,103.983051 C367.689266,106.491525 366.649718,107.305085 366.649718,107.305085 L366.627119,109.926554 C366.627119,109.926554 367.282486,110.310734 370.084746,111.463277 C372.887006,112.615819 372.00565,111.757062 374.288136,112.887006 C377.926554,114.694915 377.926554,119.644068 377.926554,119.644068 L377.926554,119.644068 L377.926554,119.644068 Z" id="Shape" fill="#66A6D4" sketch:type="MSShapeGroup" mask="url(#mask-6)"></path>
            <rect id="Rectangle-22" fill="#66A6D4" sketch:type="MSShapeGroup" x="391" y="101" width="109" height="5"></rect>
            <rect id="Rectangle-22" fill="#1F5780" sketch:type="MSShapeGroup" x="391" y="112" width="58" height="5"></rect>
            <rect id="Rectangle-22" fill="#1F5780" sketch:type="MSShapeGroup" x="391" y="90" width="70" height="5"></rect>
            <rect id="Rectangle-4" fill="#24587F" sketch:type="MSShapeGroup" x="99" y="77" width="213" height="52" rx="7"></rect>
            <mask id="mask-8" sketch:name="Mask" fill="white">
                <use xlink:href="#path-7"></use>
            </mask>
            <use id="Mask" fill="#05395F" sketch:type="MSShapeGroup" xlink:href="#path-7"></use>
            <path d="M144.926554,119.644068 L144.926554,119.644068 C144.926554,120.389831 144.316384,121 143.570621,121 L117.355932,121 C116.610169,121 116,120.389831 116,119.644068 L116,119.644068 L116,119.644068 C116,119.644068 116,114.694915 119.615819,112.909605 C121.898305,111.779661 121.016949,112.706215 123.819209,111.531073 C126.621469,110.378531 127.299435,109.971751 127.299435,109.971751 L127.322034,107.305085 C127.322034,107.305085 126.282486,106.491525 125.943503,103.983051 C125.288136,104.163842 125.062147,103.214689 125.039548,102.60452 C124.99435,102.016949 124.655367,100.163842 125.468927,100.322034 C125.310734,99.079096 125.19774,97.9717514 125.242938,97.3841808 C125.446328,95.3050847 127.435028,93.1581921 130.508475,93 C134.124294,93.1581921 135.548023,95.3276836 135.751412,97.3841808 C135.819209,97.9717514 135.683616,99.079096 135.525424,100.322034 C136.316384,100.163842 135.977401,101.99435 135.932203,102.60452 C135.887006,103.214689 135.683616,104.186441 135.028249,103.983051 C134.689266,106.491525 133.649718,107.305085 133.649718,107.305085 L133.627119,109.926554 C133.627119,109.926554 134.282486,110.310734 137.084746,111.463277 C139.887006,112.615819 139.00565,111.757062 141.288136,112.887006 C144.926554,114.694915 144.926554,119.644068 144.926554,119.644068 L144.926554,119.644068 L144.926554,119.644068 Z" id="Shape" fill="#66A6D4" sketch:type="MSShapeGroup" mask="url(#mask-8)"></path>
            <rect id="Rectangle-22" fill="#05395F" sketch:type="MSShapeGroup" x="158" y="101" width="109" height="5"></rect>
            <rect id="Rectangle-22" fill="#66A6D4" sketch:type="MSShapeGroup" x="158" y="112" width="58" height="5"></rect>
            <rect id="Rectangle-22" fill="#05395F" sketch:type="MSShapeGroup" x="158" y="90" width="70" height="5"></rect>
            <rect id="Rectangle-4" fill="#24587F" sketch:type="MSShapeGroup" x="332" y="149" width="213" height="52" rx="7"></rect>
            <mask id="mask-10" sketch:name="Mask" fill="white">
                <use xlink:href="#path-9"></use>
            </mask>
            <use id="Mask" fill-opacity="0.2" fill="#FFFFFF" sketch:type="MSShapeGroup" xlink:href="#path-9"></use>
            <path d="M377.926554,191.644068 L377.926554,191.644068 C377.926554,192.389831 377.316384,193 376.570621,193 L350.355932,193 C349.610169,193 349,192.389831 349,191.644068 L349,191.644068 L349,191.644068 C349,191.644068 349,186.694915 352.615819,184.909605 C354.898305,183.779661 354.016949,184.706215 356.819209,183.531073 C359.621469,182.378531 360.299435,181.971751 360.299435,181.971751 L360.322034,179.305085 C360.322034,179.305085 359.282486,178.491525 358.943503,175.983051 C358.288136,176.163842 358.062147,175.214689 358.039548,174.60452 C357.99435,174.016949 357.655367,172.163842 358.468927,172.322034 C358.310734,171.079096 358.19774,169.971751 358.242938,169.384181 C358.446328,167.305085 360.435028,165.158192 363.508475,165 C367.124294,165.158192 368.548023,167.327684 368.751412,169.384181 C368.819209,169.971751 368.683616,171.079096 368.525424,172.322034 C369.316384,172.163842 368.977401,173.99435 368.932203,174.60452 C368.887006,175.214689 368.683616,176.186441 368.028249,175.983051 C367.689266,178.491525 366.649718,179.305085 366.649718,179.305085 L366.627119,181.926554 C366.627119,181.926554 367.282486,182.310734 370.084746,183.463277 C372.887006,184.615819 372.00565,183.757062 374.288136,184.887006 C377.926554,186.694915 377.926554,191.644068 377.926554,191.644068 L377.926554,191.644068 L377.926554,191.644068 Z" id="Shape" fill-opacity="0.2" fill="#FFFFFF" sketch:type="MSShapeGroup" mask="url(#mask-10)"></path>
            <rect id="Rectangle-22" fill="#05395F" sketch:type="MSShapeGroup" x="391" y="173" width="109" height="5"></rect>
            <rect id="Rectangle-22" fill-opacity="0.2" fill="#FFFFFF" sketch:type="MSShapeGroup" x="391" y="184" width="58" height="5"></rect>
            <rect id="Rectangle-22" fill-opacity="0.2" fill="#FFFFFF" sketch:type="MSShapeGroup" x="391" y="162" width="70" height="5"></rect>
            <rect id="Rectangle-4" fill="#033457" sketch:type="MSShapeGroup" x="332" y="221" width="213" height="52" rx="7"></rect>
            <mask id="mask-12" sketch:name="Mask" fill="white">
                <use xlink:href="#path-11"></use>
            </mask>
            <use id="Mask" fill="#1F5780" sketch:type="MSShapeGroup" xlink:href="#path-11"></use>
            <path d="M377.926554,263.644068 L377.926554,263.644068 C377.926554,264.389831 377.316384,265 376.570621,265 L350.355932,265 C349.610169,265 349,264.389831 349,263.644068 L349,263.644068 L349,263.644068 C349,263.644068 349,258.694915 352.615819,256.909605 C354.898305,255.779661 354.016949,256.706215 356.819209,255.531073 C359.621469,254.378531 360.299435,253.971751 360.299435,253.971751 L360.322034,251.305085 C360.322034,251.305085 359.282486,250.491525 358.943503,247.983051 C358.288136,248.163842 358.062147,247.214689 358.039548,246.60452 C357.99435,246.016949 357.655367,244.163842 358.468927,244.322034 C358.310734,243.079096 358.19774,241.971751 358.242938,241.384181 C358.446328,239.305085 360.435028,237.158192 363.508475,237 C367.124294,237.158192 368.548023,239.327684 368.751412,241.384181 C368.819209,241.971751 368.683616,243.079096 368.525424,244.322034 C369.316384,244.163842 368.977401,245.99435 368.932203,246.60452 C368.887006,247.214689 368.683616,248.186441 368.028249,247.983051 C367.689266,250.491525 366.649718,251.305085 366.649718,251.305085 L366.627119,253.926554 C366.627119,253.926554 367.282486,254.310734 370.084746,255.463277 C372.887006,256.615819 372.00565,255.757062 374.288136,256.887006 C377.926554,258.694915 377.926554,263.644068 377.926554,263.644068 L377.926554,263.644068 L377.926554,263.644068 Z" id="Shape" fill="#66A6D4" sketch:type="MSShapeGroup" mask="url(#mask-12)"></path>
            <rect id="Rectangle-22" fill="#66A6D4" sketch:type="MSShapeGroup" x="391" y="245" width="109" height="5"></rect>
            <rect id="Rectangle-22" fill="#1F5780" sketch:type="MSShapeGroup" x="391" y="256" width="58" height="5"></rect>
            <rect id="Rectangle-22" fill="#1F5780" sketch:type="MSShapeGroup" x="391" y="234" width="70" height="5"></rect>
            <rect id="Rectangle-4" fill="#24587F" sketch:type="MSShapeGroup" x="99" y="221" width="213" height="52" rx="7"></rect>
            <mask id="mask-14" sketch:name="Mask" fill="white">
                <use xlink:href="#path-13"></use>
            </mask>
            <use id="Mask" fill="#05395F" sketch:type="MSShapeGroup" xlink:href="#path-13"></use>
            <path d="M144.926554,263.644068 L144.926554,263.644068 C144.926554,264.389831 144.316384,265 143.570621,265 L117.355932,265 C116.610169,265 116,264.389831 116,263.644068 L116,263.644068 L116,263.644068 C116,263.644068 116,258.694915 119.615819,256.909605 C121.898305,255.779661 121.016949,256.706215 123.819209,255.531073 C126.621469,254.378531 127.299435,253.971751 127.299435,253.971751 L127.322034,251.305085 C127.322034,251.305085 126.282486,250.491525 125.943503,247.983051 C125.288136,248.163842 125.062147,247.214689 125.039548,246.60452 C124.99435,246.016949 124.655367,244.163842 125.468927,244.322034 C125.310734,243.079096 125.19774,241.971751 125.242938,241.384181 C125.446328,239.305085 127.435028,237.158192 130.508475,237 C134.124294,237.158192 135.548023,239.327684 135.751412,241.384181 C135.819209,241.971751 135.683616,243.079096 135.525424,244.322034 C136.316384,244.163842 135.977401,245.99435 135.932203,246.60452 C135.887006,247.214689 135.683616,248.186441 135.028249,247.983051 C134.689266,250.491525 133.649718,251.305085 133.649718,251.305085 L133.627119,253.926554 C133.627119,253.926554 134.282486,254.310734 137.084746,255.463277 C139.887006,256.615819 139.00565,255.757062 141.288136,256.887006 C144.926554,258.694915 144.926554,263.644068 144.926554,263.644068 L144.926554,263.644068 L144.926554,263.644068 Z" id="Shape" fill="#66A6D4" sketch:type="MSShapeGroup" mask="url(#mask-14)"></path>
            <rect id="Rectangle-22" fill="#05395F" sketch:type="MSShapeGroup" x="158" y="245" width="109" height="5"></rect>
            <rect id="Rectangle-22" fill="#05395F" sketch:type="MSShapeGroup" x="158" y="256" width="58" height="5"></rect>
            <rect id="Rectangle-22" fill="#66A6D4" sketch:type="MSShapeGroup" x="158" y="234" width="70" height="5"></rect>
            <rect id="Rectangle-4" fill="#033457" sketch:type="MSShapeGroup" x="99" y="293" width="213" height="52" rx="7"></rect>
            <mask id="mask-16" sketch:name="Mask" fill="white">
                <use xlink:href="#path-15"></use>
            </mask>
            <use id="Mask" fill="#1F5780" sketch:type="MSShapeGroup" xlink:href="#path-15"></use>
            <path d="M144.926554,335.644068 L144.926554,335.644068 C144.926554,336.389831 144.316384,337 143.570621,337 L117.355932,337 C116.610169,337 116,336.389831 116,335.644068 L116,335.644068 L116,335.644068 C116,335.644068 116,330.694915 119.615819,328.909605 C121.898305,327.779661 121.016949,328.706215 123.819209,327.531073 C126.621469,326.378531 127.299435,325.971751 127.299435,325.971751 L127.322034,323.305085 C127.322034,323.305085 126.282486,322.491525 125.943503,319.983051 C125.288136,320.163842 125.062147,319.214689 125.039548,318.60452 C124.99435,318.016949 124.655367,316.163842 125.468927,316.322034 C125.310734,315.079096 125.19774,313.971751 125.242938,313.384181 C125.446328,311.305085 127.435028,309.158192 130.508475,309 C134.124294,309.158192 135.548023,311.327684 135.751412,313.384181 C135.819209,313.971751 135.683616,315.079096 135.525424,316.322034 C136.316384,316.163842 135.977401,317.99435 135.932203,318.60452 C135.887006,319.214689 135.683616,320.186441 135.028249,319.983051 C134.689266,322.491525 133.649718,323.305085 133.649718,323.305085 L133.627119,325.926554 C133.627119,325.926554 134.282486,326.310734 137.084746,327.463277 C139.887006,328.615819 139.00565,327.757062 141.288136,328.887006 C144.926554,330.694915 144.926554,335.644068 144.926554,335.644068 L144.926554,335.644068 L144.926554,335.644068 Z" id="Shape" fill="#66A6D5" sketch:type="MSShapeGroup" mask="url(#mask-16)"></path>
            <rect id="Rectangle-22" fill="#66A6D4" sketch:type="MSShapeGroup" x="158" y="317" width="109" height="5"></rect>
            <rect id="Rectangle-22" fill="#1F5780" sketch:type="MSShapeGroup" x="158" y="328" width="58" height="5"></rect>
            <rect id="Rectangle-22" fill="#1F5780" sketch:type="MSShapeGroup" x="158" y="306" width="70" height="5"></rect>
            <rect id="Rectangle-4" fill="#24587F" sketch:type="MSShapeGroup" x="332" y="293" width="213" height="52" rx="7"></rect>
            <mask id="mask-18" sketch:name="Mask" fill="white">
                <use xlink:href="#path-17"></use>
            </mask>
            <use id="Mask" fill="#05395F" sketch:type="MSShapeGroup" xlink:href="#path-17"></use>
            <path d="M377.926554,335.644068 L377.926554,335.644068 C377.926554,336.389831 377.316384,337 376.570621,337 L350.355932,337 C349.610169,337 349,336.389831 349,335.644068 L349,335.644068 L349,335.644068 C349,335.644068 349,330.694915 352.615819,328.909605 C354.898305,327.779661 354.016949,328.706215 356.819209,327.531073 C359.621469,326.378531 360.299435,325.971751 360.299435,325.971751 L360.322034,323.305085 C360.322034,323.305085 359.282486,322.491525 358.943503,319.983051 C358.288136,320.163842 358.062147,319.214689 358.039548,318.60452 C357.99435,318.016949 357.655367,316.163842 358.468927,316.322034 C358.310734,315.079096 358.19774,313.971751 358.242938,313.384181 C358.446328,311.305085 360.435028,309.158192 363.508475,309 C367.124294,309.158192 368.548023,311.327684 368.751412,313.384181 C368.819209,313.971751 368.683616,315.079096 368.525424,316.322034 C369.316384,316.163842 368.977401,317.99435 368.932203,318.60452 C368.887006,319.214689 368.683616,320.186441 368.028249,319.983051 C367.689266,322.491525 366.649718,323.305085 366.649718,323.305085 L366.627119,325.926554 C366.627119,325.926554 367.282486,326.310734 370.084746,327.463277 C372.887006,328.615819 372.00565,327.757062 374.288136,328.887006 C377.926554,330.694915 377.926554,335.644068 377.926554,335.644068 L377.926554,335.644068 L377.926554,335.644068 Z" id="Shape" fill="#66A6D4" sketch:type="MSShapeGroup" mask="url(#mask-18)"></path>
            <rect id="Rectangle-22" fill="#05395F" sketch:type="MSShapeGroup" x="391" y="317" width="109" height="5"></rect>
            <rect id="Rectangle-22" fill="#66A6D4" sketch:type="MSShapeGroup" x="391" y="328" width="58" height="5"></rect>
            <rect id="Rectangle-22" fill="#05395F" sketch:type="MSShapeGroup" x="391" y="306" width="70" height="5"></rect>
            <rect id="Rectangle-4" fill="#FFFFFF" filter="url(#filter-19)" sketch:type="MSShapeGroup" x="1" y="118" width="470" height="115" rx="7"></rect>
            <mask id="mask-21" sketch:name="Mask" fill="white">
                <use xlink:href="#path-20"></use>
            </mask>
            <use id="Mask" fill="#ADDDFF" sketch:type="MSShapeGroup" xlink:href="#path-20"></use>
            <path d="M98.3970944,209.789199 L98.3970944,209.789199 C98.3970944,211.294749 97.1652807,212.526562 95.6597306,212.526562 L42.7373638,212.526562 C41.2318137,212.526562 40,211.294749 40,209.789199 L40,209.789199 L40,209.789199 C40,209.789199 40,199.797821 47.2996368,196.193625 C51.9075325,193.912489 50.1282461,195.783021 55.7854646,193.410639 C61.4426831,191.083879 62.811365,190.26267 62.811365,190.26267 L62.8569877,184.879188 C62.8569877,184.879188 60.7583422,183.23677 60.0740012,178.172647 C58.750942,178.537629 58.2947147,176.621474 58.249092,175.38966 C58.1578465,174.203469 57.4735056,170.462405 59.1159239,170.781765 C58.7965648,168.272514 58.5684511,166.037001 58.6596966,164.85081 C59.0703012,160.653518 63.0851014,156.319359 69.2897927,156 C76.5894295,156.319359 79.4636615,160.699141 79.874266,164.85081 C80.0111342,166.037001 79.7373979,168.272514 79.4180387,170.781765 C81.0148343,170.462405 80.3304933,174.157847 80.2392479,175.38966 C80.1480024,176.621474 79.7373979,178.583251 78.4143387,178.172647 C77.7299977,183.23677 75.6313521,184.879188 75.6313521,184.879188 L75.5857294,190.171425 C75.5857294,190.171425 76.9087886,190.947011 82.5660071,193.27377 C88.2232256,195.60053 86.4439392,193.866866 91.0518349,196.148002 C98.3970944,199.797821 98.3970944,209.789199 98.3970944,209.789199 L98.3970944,209.789199 L98.3970944,209.789199 Z" id="Shape" fill="#003459" sketch:type="MSShapeGroup" mask="url(#mask-21)"></path>
            <path d="M130.5,201.375 C129.464625,201.375 128.625,200.53575 128.625,199.5 C128.625,198.46425 129.464625,197.625 130.5,197.625 C131.535375,197.625 132.375,198.46425 132.375,199.5 C132.375,200.53575 131.535375,201.375 130.5,201.375 L130.5,201.375 Z M126,199.5 C126,201.38175 129.751875,207.004125 130.5,207 C131.2365,207.004125 135,201.35625 135,199.5 C135,197.014875 132.985125,195 130.5,195 C128.014875,195 126,197.014875 126,199.5 Z" id="Fill-161" fill="#868686" sketch:type="MSShapeGroup"></path>
            <path d="M132.4,155.112 C132.4,156.38134 132.037337,157.37333 131.312,158.088 C130.586663,158.80267 129.568007,159.16 128.256,159.16 C127.039994,159.16 126.117336,158.880003 125.488,158.32 C124.858664,157.759997 124.544,156.994672 124.544,156.024 C124.544,155.725332 124.576,155.410668 124.64,155.08 L126.8,154.696 C126.757333,154.994668 126.736,155.293332 126.736,155.592 C126.736,156.200003 126.863999,156.645332 127.12,156.928 C127.376001,157.210668 127.775997,157.352 128.32,157.352 C129.00267,157.352 129.485332,157.146669 129.768,156.736 C130.050668,156.325331 130.192,155.682671 130.192,154.808 L130.192,148.44 L132.4,148.44 L132.4,155.112 Z M141.810667,151.944 C142.53067,152.680004 142.890667,153.69866 142.890667,155 C142.890667,156.30134 142.53067,157.319996 141.810667,158.056 C141.090663,158.792004 140.08534,159.16 138.794667,159.16 C137.503994,159.16 136.49867,158.792004 135.778667,158.056 C135.058663,157.319996 134.698667,156.30134 134.698667,155 C134.698667,153.69866 135.058663,152.680004 135.778667,151.944 C136.49867,151.207996 137.503994,150.84 138.794667,150.84 C140.08534,150.84 141.090663,151.207996 141.810667,151.944 L141.810667,151.944 Z M137.378667,153.104 C137.053332,153.525335 136.890667,154.157329 136.890667,155 C136.890667,155.842671 137.053332,156.474665 137.378667,156.896 C137.704002,157.317335 138.175997,157.528 138.794667,157.528 C139.413336,157.528 139.885332,157.317335 140.210667,156.896 C140.536002,156.474665 140.698667,155.842671 140.698667,155 C140.698667,154.157329 140.536002,153.525335 140.210667,153.104 C139.885332,152.682665 139.413336,152.472 138.794667,152.472 C138.175997,152.472 137.704002,152.682665 137.378667,153.104 L137.378667,153.104 Z M152.061333,151.592 C152.589336,152.093336 152.853333,152.813329 152.853333,153.752 L152.853333,159 L150.661333,159 L150.661333,154.392 C150.661333,153.175994 150.186671,152.568 149.237333,152.568 C148.725331,152.568 148.290668,152.749332 147.933333,153.112 C147.575998,153.474668 147.397333,154.02933 147.397333,154.776 L147.397333,159 L145.205333,159 L145.205333,147.496 L147.397333,147.496 L147.397333,152.36 C147.642668,151.847997 147.986664,151.466668 148.429333,151.216 C148.872002,150.965332 149.386664,150.84 149.973333,150.84 C150.837338,150.84 151.533331,151.090664 152.061333,151.592 L152.061333,151.592 Z M162.392,151.592 C162.920003,152.093336 163.184,152.813329 163.184,153.752 L163.184,159 L160.992,159 L160.992,154.392 C160.992,153.175994 160.517338,152.568 159.568,152.568 C159.055997,152.568 158.621335,152.749332 158.264,153.112 C157.906665,153.474668 157.728,154.02933 157.728,154.776 L157.728,159 L155.536,159 L155.536,151 L157.504,151 L157.568,152.424 C157.834668,151.901331 158.202664,151.506668 158.672,151.24 C159.141336,150.973332 159.68533,150.84 160.304,150.84 C161.168004,150.84 161.863997,151.090664 162.392,151.592 L162.392,151.592 Z M179.333333,149.816 C180.240005,150.733338 180.693333,152.034658 180.693333,153.72 C180.693333,155.405342 180.240005,156.706662 179.333333,157.624 C178.426662,158.541338 177.146675,159 175.493333,159 L171.413333,159 L171.413333,148.44 L175.493333,148.44 C177.146675,148.44 178.426662,148.898662 179.333333,149.816 L179.333333,149.816 Z M177.645333,156.336 C178.152003,155.73333 178.405333,154.861339 178.405333,153.72 C178.405333,152.578661 178.152003,151.70667 177.645333,151.104 C177.138664,150.50133 176.384005,150.2 175.381333,150.2 L173.621333,150.2 L173.621333,157.24 L175.381333,157.24 C176.384005,157.24 177.138664,156.93867 177.645333,156.336 L177.645333,156.336 Z M189.816,151.944 C190.536004,152.680004 190.896,153.69866 190.896,155 C190.896,156.30134 190.536004,157.319996 189.816,158.056 C189.095996,158.792004 188.090673,159.16 186.8,159.16 C185.509327,159.16 184.504004,158.792004 183.784,158.056 C183.063996,157.319996 182.704,156.30134 182.704,155 C182.704,153.69866 183.063996,152.680004 183.784,151.944 C184.504004,151.207996 185.509327,150.84 186.8,150.84 C188.090673,150.84 189.095996,151.207996 189.816,151.944 L189.816,151.944 Z M185.384,153.104 C185.058665,153.525335 184.896,154.157329 184.896,155 C184.896,155.842671 185.058665,156.474665 185.384,156.896 C185.709335,157.317335 186.18133,157.528 186.8,157.528 C187.41867,157.528 187.890665,157.317335 188.216,156.896 C188.541335,156.474665 188.704,155.842671 188.704,155 C188.704,154.157329 188.541335,153.525335 188.216,153.104 C187.890665,152.682665 187.41867,152.472 186.8,152.472 C186.18133,152.472 185.709335,152.682665 185.384,153.104 L185.384,153.104 Z M200.618667,155.832 L194.954667,155.832 C195.178668,156.962672 195.845328,157.528 196.954667,157.528 C197.413336,157.528 197.791999,157.442668 198.090667,157.272 C198.389335,157.101332 198.597333,156.856002 198.714667,156.536 L200.506667,157.192 C200.250665,157.832003 199.821336,158.319998 199.218667,158.656 C198.615997,158.992002 197.861338,159.16 196.954667,159.16 C195.631993,159.16 194.608004,158.79467 193.882667,158.064 C193.15733,157.33333 192.794667,156.312007 192.794667,155 C192.794667,153.687993 193.146663,152.66667 193.850667,151.936 C194.55467,151.20533 195.54666,150.84 196.826667,150.84 C198.064006,150.84 199.015997,151.19733 199.682667,151.912 C200.349337,152.62667 200.682667,153.645327 200.682667,154.968 C200.682667,155.266668 200.661334,155.554665 200.618667,155.832 L200.618667,155.832 Z M195.538667,152.92 C195.223998,153.229335 195.024,153.687997 194.938667,154.296 L198.666667,154.296 C198.581333,153.698664 198.378668,153.242668 198.058667,152.928 C197.738665,152.613332 197.322669,152.456 196.810667,152.456 C196.277331,152.456 195.853335,152.610665 195.538667,152.92 L195.538667,152.92 Z" id="John-Doe" fill="#000000" sketch:type="MSShapeGroup"></path>
            <path d="M135.936,183 L134.72,183 L134.72,176.36 L134.864,173.576 L134.848,173.576 L131.376,183 L130.288,183 L126.816,173.576 L126.8,173.576 L126.944,176.36 L126.944,183 L125.728,183 L125.728,172.44 L127.696,172.44 L130.016,178.856 L130.816,181.496 L130.848,181.496 L131.664,178.872 L133.968,172.44 L135.936,172.44 L135.936,183 Z M146.682667,181.992 L146.602667,183 C146.303999,183.106667 145.984002,183.16 145.642667,183.16 C145.226665,183.16 144.898668,183.069334 144.658667,182.888 C144.418665,182.706666 144.266667,182.402669 144.202667,181.976 C143.957332,182.349335 143.597336,182.639999 143.122667,182.848 C142.647998,183.056001 142.149336,183.16 141.626667,183.16 C140.837329,183.16 140.186669,182.976002 139.674667,182.608 C139.162664,182.239998 138.906667,181.709337 138.906667,181.016 C138.906667,180.407997 139.173331,179.882669 139.706667,179.44 C140.240003,178.997331 141.013328,178.690668 142.026667,178.52 L144.154667,178.168 L144.154667,177.72 C144.154667,177.186664 143.989335,176.760002 143.658667,176.44 C143.327998,176.119998 142.869336,175.96 142.282667,175.96 C141.749331,175.96 141.288002,176.087999 140.898667,176.344 C140.509331,176.600001 140.208001,176.978664 139.994667,177.48 L139.050667,176.792 C139.264001,176.194664 139.66133,175.720002 140.242667,175.368 C140.824003,175.015998 141.503996,174.84 142.282667,174.84 C143.232005,174.84 143.994664,175.069331 144.570667,175.528 C145.14667,175.986669 145.434667,176.663996 145.434667,177.56 L145.434667,181.496 C145.434667,181.688001 145.482666,181.832 145.578667,181.928 C145.674667,182.024 145.829332,182.072 146.042667,182.072 C146.256001,182.072 146.469332,182.045334 146.682667,181.992 L146.682667,181.992 Z M143.426667,181.56 C143.912002,181.239998 144.154667,180.824003 144.154667,180.312 L144.154667,179.208 L142.362667,179.544 C141.647996,179.672001 141.114668,179.855999 140.762667,180.096 C140.410665,180.336001 140.234667,180.642665 140.234667,181.016 C140.234667,181.346668 140.362665,181.599999 140.618667,181.776 C140.874668,181.952001 141.231998,182.04 141.690667,182.04 C142.36267,182.04 142.941331,181.880002 143.426667,181.56 L143.426667,181.56 Z M153.621333,175 L153.365333,176.248 C153.109332,176.109333 152.773335,176.04 152.357333,176.04 C152.015998,176.04 151.682668,176.138666 151.357333,176.336 C151.031998,176.533334 150.765334,176.831998 150.557333,177.232 C150.349332,177.632002 150.245333,178.114664 150.245333,178.68 L150.245333,183 L148.965333,183 L148.965333,175 L150.005333,175 L150.181333,176.312 C150.629336,175.330662 151.48266,174.84 152.741333,174.84 C153.125335,174.84 153.418666,174.893333 153.621333,175 L153.621333,175 Z M158.896,179.048 L157.2,180.744 L157.2,183 L155.92,183 L155.92,171.32 L157.2,171.32 L157.2,179.144 L161.344,175 L162.944,175 L159.824,178.12 L163.136,183 L161.584,183 L158.896,179.048 Z M171.930667,179.48 L165.898667,179.48 C165.973334,180.290671 166.242664,180.919998 166.706667,181.368 C167.170669,181.816002 167.770663,182.04 168.506667,182.04 C169.093336,182.04 169.581331,181.938668 169.970667,181.736 C170.360002,181.533332 170.623999,181.240002 170.762667,180.856 L171.834667,181.416 C171.514665,181.981336 171.088003,182.413332 170.554667,182.712 C170.021331,183.010668 169.338671,183.16 168.506667,183.16 C167.301327,183.16 166.35467,182.792004 165.666667,182.056 C164.978663,181.319996 164.634667,180.30134 164.634667,179 C164.634667,177.69866 164.962663,176.680004 165.618667,175.944 C166.27467,175.207996 167.205327,174.84 168.410667,174.84 C169.157337,174.84 169.802664,175.005332 170.346667,175.336 C170.890669,175.666668 171.301332,176.114664 171.578667,176.68 C171.856001,177.245336 171.994667,177.879996 171.994667,178.584 C171.994667,178.882668 171.973334,179.181332 171.930667,179.48 L171.930667,179.48 Z M166.706667,176.584 C166.274665,177.000002 166.010667,177.586663 165.914667,178.344 L170.762667,178.344 C170.677333,177.59733 170.432002,177.013335 170.026667,176.592 C169.621331,176.170665 169.08267,175.96 168.410667,175.96 C167.706663,175.96 167.138669,176.167998 166.706667,176.584 L166.706667,176.584 Z M179.509333,182.44 C178.975997,182.920002 178.288004,183.16 177.445333,183.16 C176.794663,183.16 176.264002,182.984002 175.853333,182.632 C175.442665,182.279998 175.232,181.741337 175.221333,181.016 L175.221333,176.104 L173.621333,176.104 L173.621333,175 L175.221333,175 L175.221333,173.08 L176.501333,172.728 L176.501333,175 L179.461333,175 L179.461333,176.104 L176.501333,176.104 L176.501333,180.792 C176.501333,181.176002 176.610666,181.466666 176.829333,181.664 C177.048001,181.861334 177.338665,181.96 177.701333,181.96 C178.213336,181.96 178.666665,181.762669 179.061333,181.368 L179.509333,182.44 Z M181.688,173.2 C181.511999,173.023999 181.424,172.792001 181.424,172.504 C181.424,172.215999 181.511999,171.984001 181.688,171.808 C181.864001,171.631999 182.095999,171.544 182.384,171.544 C182.672002,171.544 182.903999,171.631999 183.08,171.808 C183.256001,171.984001 183.344,172.215999 183.344,172.504 C183.344,172.792001 183.256001,173.023999 183.08,173.2 C182.903999,173.376001 182.672002,173.464 182.384,173.464 C182.095999,173.464 181.864001,173.376001 181.688,173.2 L181.688,173.2 Z M183.024,183 L181.744,183 L181.744,175 L183.024,175 L183.024,183 Z M192.554667,175.624 C193.141336,176.146669 193.434667,176.898662 193.434667,177.88 L193.434667,183 L192.154667,183 L192.154667,178.328 C192.154667,177.495996 191.976002,176.893335 191.618667,176.52 C191.261332,176.146665 190.784003,175.96 190.186667,175.96 C189.759998,175.96 189.360002,176.053332 188.986667,176.24 C188.613332,176.426668 188.306668,176.730665 188.066667,177.152 C187.826666,177.573335 187.706667,178.103997 187.706667,178.744 L187.706667,183 L186.426667,183 L186.426667,175 L187.546667,175 L187.626667,176.248 C187.893335,175.767998 188.261331,175.413334 188.730667,175.184 C189.200002,174.954666 189.727997,174.84 190.314667,174.84 C191.221338,174.84 191.967997,175.101331 192.554667,175.624 L192.554667,175.624 Z M202.997333,182.488 C203.424002,182.829335 203.637333,183.29333 203.637333,183.88 C203.637333,184.392003 203.461335,184.842665 203.109333,185.232 C202.757332,185.621335 202.280003,185.919999 201.677333,186.128 C201.074664,186.336001 200.41067,186.44 199.685333,186.44 C198.469327,186.44 197.552003,186.245335 196.933333,185.856 C196.314664,185.466665 196.005333,184.957336 196.005333,184.328 C196.005333,183.965332 196.130665,183.645335 196.381333,183.368 C196.632001,183.090665 196.975998,182.893334 197.413333,182.776 C197.082665,182.615999 196.818668,182.413335 196.621333,182.168 C196.423999,181.922665 196.325333,181.634668 196.325333,181.304 C196.325333,180.909331 196.431999,180.581335 196.645333,180.32 C196.858668,180.058665 197.151998,179.864001 197.525333,179.736 C197.141331,179.501332 196.850668,179.194669 196.653333,178.816 C196.455999,178.437331 196.357333,178.013336 196.357333,177.544 C196.357333,177.021331 196.495999,176.554669 196.773333,176.144 C197.050668,175.733331 197.439998,175.413334 197.941333,175.184 C198.442669,174.954666 199.007997,174.84 199.637333,174.84 C200.23467,174.84 200.778664,174.946666 201.269333,175.16 C201.568002,174.071995 202.319994,173.528 203.525333,173.528 L203.813333,174.648 C202.767995,174.648 202.133335,174.94133 201.909333,175.528 C202.229335,175.773335 202.477333,176.066665 202.653333,176.408 C202.829334,176.749335 202.917333,177.127998 202.917333,177.544 C202.917333,178.066669 202.778668,178.533331 202.501333,178.944 C202.223999,179.354669 201.834669,179.674666 201.333333,179.904 C200.831998,180.133334 200.26667,180.248 199.637333,180.248 C199.167998,180.248 198.757335,180.2 198.405333,180.104 C198.085332,180.178667 197.856001,180.295999 197.717333,180.456 C197.578666,180.616001 197.509333,180.834665 197.509333,181.112 C197.509333,181.389335 197.605332,181.602666 197.797333,181.752 C197.989334,181.901334 198.245332,181.976 198.565333,181.976 L201.221333,181.976 C201.978671,181.976 202.570665,182.146665 202.997333,182.488 L202.997333,182.488 Z M198.245333,176.344 C197.871998,176.653335 197.685333,177.053331 197.685333,177.544 C197.685333,178.034669 197.871998,178.434665 198.245333,178.744 C198.618669,179.053335 199.082664,179.208 199.637333,179.208 C200.192003,179.208 200.655998,179.053335 201.029333,178.744 C201.402669,178.434665 201.589333,178.034669 201.589333,177.544 C201.589333,177.053331 201.402669,176.653335 201.029333,176.344 C200.655998,176.034665 200.192003,175.88 199.637333,175.88 C199.082664,175.88 198.618669,176.034665 198.245333,176.344 L198.245333,176.344 Z M201.749333,184.976 C202.218669,184.714665 202.453333,184.397335 202.453333,184.024 C202.453333,183.714665 202.333335,183.480001 202.093333,183.32 C201.853332,183.159999 201.445336,183.08 200.869333,183.08 L198.725333,183.08 C198.234664,183.08 197.856001,183.167999 197.589333,183.344 C197.322665,183.520001 197.189333,183.762665 197.189333,184.072 C197.189333,184.477335 197.413331,184.794666 197.861333,185.024 C198.309336,185.253334 198.965329,185.368 199.829333,185.368 C200.640004,185.368 201.279998,185.237335 201.749333,184.976 L201.749333,184.976 Z M207.488,181.512 C207.701334,181.800001 207.808,182.173331 207.808,182.632 C207.808,183.197336 207.664002,183.719998 207.376,184.2 C207.087999,184.680002 206.65067,185.058665 206.064,185.336 L205.392,184.712 C205.808002,184.573333 206.154665,184.354668 206.432,184.056 C206.709335,183.757332 206.885333,183.432002 206.96,183.08 L206.896,183.048 C206.8,183.122667 206.650668,183.16 206.448,183.16 C206.223999,183.16 206.021334,183.072001 205.84,182.896 C205.658666,182.719999 205.568,182.472002 205.568,182.152 C205.568,181.863999 205.669332,181.613334 205.872,181.4 C206.074668,181.186666 206.319999,181.08 206.608,181.08 C206.981335,181.08 207.274666,181.223999 207.488,181.512 L207.488,181.512 Z M224.949333,179.064 C224.949333,180.418673 224.59467,181.439997 223.885333,182.128 C223.175997,182.816003 222.14934,183.16 220.805333,183.16 C219.461327,183.16 218.43467,182.813337 217.725333,182.12 C217.015997,181.426663 216.661333,180.408007 216.661333,179.064 L216.661333,172.44 L217.941333,172.44 L217.941333,178.744 C217.941333,179.853339 218.173331,180.666664 218.637333,181.184 C219.101336,181.701336 219.823995,181.96 220.805333,181.96 C221.786672,181.96 222.509331,181.701336 222.973333,181.184 C223.437336,180.666664 223.669333,179.853339 223.669333,178.744 L223.669333,172.44 L224.949333,172.44 L224.949333,179.064 Z M230,183 L228.72,183 L228.72,172.44 L230,172.44 L230,183 Z M239.685333,184.12 L238.485333,184.12 L243.381333,171.32 L244.581333,171.32 L239.685333,184.12 Z M261.258667,179.064 C261.258667,180.418673 260.904004,181.439997 260.194667,182.128 C259.48533,182.816003 258.458674,183.16 257.114667,183.16 C255.77066,183.16 254.744004,182.813337 254.034667,182.12 C253.32533,181.426663 252.970667,180.408007 252.970667,179.064 L252.970667,172.44 L254.250667,172.44 L254.250667,178.744 C254.250667,179.853339 254.482665,180.666664 254.946667,181.184 C255.410669,181.701336 256.133329,181.96 257.114667,181.96 C258.096005,181.96 258.818665,181.701336 259.282667,181.184 C259.746669,180.666664 259.978667,179.853339 259.978667,178.744 L259.978667,172.44 L261.258667,172.44 L261.258667,179.064 Z M270.917334,183 L268.053334,178.632 L265.189334,183 L263.701334,183 L267.397334,177.624 L264.021334,172.44 L265.541334,172.44 L268.229334,176.568 L270.933334,172.44 L272.293334,172.44 L268.885334,177.56 L272.405334,183 L270.917334,183 Z M276.352,181.512 C276.565335,181.800001 276.672,182.173331 276.672,182.632 C276.672,183.197336 276.528002,183.719998 276.24,184.2 C275.951999,184.680002 275.51467,185.058665 274.928,185.336 L274.256,184.712 C274.672002,184.573333 275.018665,184.354668 275.296,184.056 C275.573335,183.757332 275.749333,183.432002 275.824,183.08 L275.76,183.048 C275.664,183.122667 275.514668,183.16 275.312,183.16 C275.087999,183.16 274.885334,183.072001 274.704,182.896 C274.522666,182.719999 274.432,182.472002 274.432,182.152 C274.432,181.863999 274.533333,181.613334 274.736,181.4 C274.938668,181.186666 275.183999,181.08 275.472,181.08 C275.845335,181.08 276.138666,181.223999 276.352,181.512 L276.352,181.512 Z M293.925334,172.44 L293.925334,183 L292.645334,183 L292.645334,178.248 L286.917334,178.248 L286.917334,183 L285.637334,183 L285.637334,172.44 L286.917334,172.44 L286.917334,177.048 L292.645334,177.048 L292.645334,172.44 L293.925334,172.44 Z M305.232,173.64 L301.552,173.64 L301.552,183 L300.272,183 L300.272,173.64 L296.592,173.64 L296.592,172.44 L305.232,172.44 L305.232,173.64 Z M318.106667,183 L316.890667,183 L316.890667,176.36 L317.034667,173.576 L317.018667,173.576 L313.546667,183 L312.458667,183 L308.986667,173.576 L308.970667,173.576 L309.114667,176.36 L309.114667,183 L307.898667,183 L307.898667,172.44 L309.866667,172.44 L312.186667,178.856 L312.986667,181.496 L313.018667,181.496 L313.834667,178.872 L316.138667,172.44 L318.106667,172.44 L318.106667,183 Z M329.317334,181.8 L329.317334,183 L321.989334,183 L321.989334,172.44 L323.269334,172.44 L323.269334,181.8 L329.317334,181.8 Z" id="Marketing,-UI-/-UX,-" fill="#A4A4A4" sketch:type="MSShapeGroup"></path>
            <path d="M144.728,196.44 L148.488,196.44 C149.704006,196.44 150.607997,196.693331 151.2,197.2 C151.792003,197.706669 152.088,198.423995 152.088,199.352 C152.088,199.906669 151.930668,200.397331 151.616,200.824 C151.301332,201.250669 150.866669,201.517333 150.312,201.624 L150.312,201.64 C150.93067,201.757334 151.426665,202.039998 151.8,202.488 C152.173335,202.936002 152.36,203.45333 152.36,204.04 C152.36,204.946671 152.01867,205.666664 151.336,206.2 C150.65333,206.733336 149.698673,207 148.472,207 L144.728,207 L144.728,196.44 Z M148.504,201.08 C149.261337,201.08 149.823998,200.938668 150.192,200.656 C150.560002,200.373332 150.744,199.93867 150.744,199.352 C150.744,198.210661 149.997341,197.64 148.504,197.64 L146.008,197.64 L146.008,201.08 L148.504,201.08 Z M148.776,205.8 C149.52267,205.8 150.082665,205.648002 150.456,205.344 C150.829335,205.039998 151.016,204.605336 151.016,204.04 C151.016,203.474664 150.829335,203.040002 150.456,202.736 C150.082665,202.431998 149.52267,202.28 148.776,202.28 L146.008,202.28 L146.008,205.8 L148.776,205.8 Z M160.018667,199 L159.762667,200.248 C159.506665,200.109333 159.170669,200.04 158.754667,200.04 C158.413332,200.04 158.080002,200.138666 157.754667,200.336 C157.429332,200.533334 157.162668,200.831998 156.954667,201.232 C156.746666,201.632002 156.642667,202.114664 156.642667,202.68 L156.642667,207 L155.362667,207 L155.362667,199 L156.402667,199 L156.578667,200.312 C157.026669,199.330662 157.879994,198.84 159.138667,198.84 C159.522669,198.84 159.815999,198.893333 160.018667,199 L160.018667,199 Z M168.277333,199.944 C168.965337,200.680004 169.309333,201.69866 169.309333,203 C169.309333,204.30134 168.965337,205.319996 168.277333,206.056 C167.58933,206.792004 166.642673,207.16 165.437333,207.16 C164.231994,207.16 163.285337,206.792004 162.597333,206.056 C161.90933,205.319996 161.565333,204.30134 161.565333,203 C161.565333,201.69866 161.90933,200.680004 162.597333,199.944 C163.285337,199.207996 164.231994,198.84 165.437333,198.84 C166.642673,198.84 167.58933,199.207996 168.277333,199.944 L168.277333,199.944 Z M163.533333,200.76 C163.074664,201.304003 162.845333,202.050662 162.845333,203 C162.845333,203.949338 163.074664,204.695997 163.533333,205.24 C163.992002,205.784003 164.626663,206.056 165.437333,206.056 C166.248004,206.056 166.882664,205.784003 167.341333,205.24 C167.800002,204.695997 168.029333,203.949338 168.029333,203 C168.029333,202.050662 167.800002,201.304003 167.341333,200.76 C166.882664,200.215997 166.248004,199.944 165.437333,199.944 C164.626663,199.944 163.992002,200.215997 163.533333,200.76 L163.533333,200.76 Z M178.432,199.944 C179.120003,200.680004 179.464,201.69866 179.464,203 C179.464,204.30134 179.120003,205.319996 178.432,206.056 C177.743997,206.792004 176.797339,207.16 175.592,207.16 C174.386661,207.16 173.440003,206.792004 172.752,206.056 C172.063997,205.319996 171.72,204.30134 171.72,203 C171.72,201.69866 172.063997,200.680004 172.752,199.944 C173.440003,199.207996 174.386661,198.84 175.592,198.84 C176.797339,198.84 177.743997,199.207996 178.432,199.944 L178.432,199.944 Z M173.688,200.76 C173.229331,201.304003 173,202.050662 173,203 C173,203.949338 173.229331,204.695997 173.688,205.24 C174.146669,205.784003 174.781329,206.056 175.592,206.056 C176.402671,206.056 177.037331,205.784003 177.496,205.24 C177.954669,204.695997 178.184,203.949338 178.184,203 C178.184,202.050662 177.954669,201.304003 177.496,200.76 C177.037331,200.215997 176.402671,199.944 175.592,199.944 C174.781329,199.944 174.146669,200.215997 173.688,200.76 L173.688,200.76 Z M185.346667,203.048 L183.650667,204.744 L183.650667,207 L182.370667,207 L182.370667,195.32 L183.650667,195.32 L183.650667,203.144 L187.794667,199 L189.394667,199 L186.274667,202.12 L189.586667,207 L188.034667,207 L185.346667,203.048 Z M193.085333,204.856 C193.085333,205.261335 193.146666,205.541333 193.269333,205.696 C193.392001,205.850667 193.618665,205.928 193.949333,205.928 C194.173335,205.928 194.367999,205.912 194.533333,205.88 C194.698668,205.848 194.893332,205.789334 195.117333,205.704 L194.909333,206.936 C194.557332,207.085334 194.162669,207.16 193.725333,207.16 C193.074663,207.16 192.592002,206.984002 192.277333,206.632 C191.962665,206.279998 191.805333,205.741337 191.805333,205.016 L191.805333,195.32 L193.085333,195.32 L193.085333,204.856 Z M199.832,208.344 C199.522665,209.112004 199.176002,209.653332 198.792,209.968 C198.407998,210.282668 197.912003,210.44 197.304,210.44 C196.898665,210.44 196.560001,210.386667 196.288,210.28 C196.015999,210.173333 195.768001,210.002668 195.544,209.768 L195.992,208.68 C196.301335,209.106669 196.733331,209.32 197.288,209.32 C197.597335,209.32 197.871999,209.226668 198.112,209.04 C198.352001,208.853332 198.562666,208.514669 198.744,208.024 L199.16,206.984 L195.816,199 L197.272,199 L199.272,204.216 L199.768,205.64 L200.344,204.056 L202.216,199 L203.592,199 L199.832,208.344 Z M211.906667,199.624 C212.493336,200.146669 212.786667,200.898662 212.786667,201.88 L212.786667,207 L211.506667,207 L211.506667,202.328 C211.506667,201.495996 211.328002,200.893335 210.970667,200.52 C210.613332,200.146665 210.136003,199.96 209.538667,199.96 C209.111998,199.96 208.712002,200.053332 208.338667,200.24 C207.965332,200.426668 207.658668,200.730665 207.418667,201.152 C207.178666,201.573335 207.058667,202.103997 207.058667,202.744 L207.058667,207 L205.778667,207 L205.778667,199 L206.898667,199 L206.978667,200.248 C207.245335,199.767998 207.613331,199.413334 208.082667,199.184 C208.552002,198.954666 209.079997,198.84 209.666667,198.84 C210.573338,198.84 211.319997,199.101331 211.906667,199.624 L211.906667,199.624 Z M217.629333,205.512 C217.842668,205.800001 217.949333,206.173331 217.949333,206.632 C217.949333,207.197336 217.805335,207.719998 217.517333,208.2 C217.229332,208.680002 216.792003,209.058665 216.205333,209.336 L215.533333,208.712 C215.949335,208.573333 216.295999,208.354668 216.573333,208.056 C216.850668,207.757332 217.026666,207.432002 217.101333,207.08 L217.037333,207.048 C216.941333,207.122667 216.792001,207.16 216.589333,207.16 C216.365332,207.16 216.162668,207.072001 215.981333,206.896 C215.799999,206.719999 215.709333,206.472002 215.709333,206.152 C215.709333,205.863999 215.810666,205.613334 216.013333,205.4 C216.216001,205.186666 216.461332,205.08 216.749333,205.08 C217.122669,205.08 217.415999,205.223999 217.629333,205.512 L217.629333,205.512 Z M235.202667,207 L233.618667,207 L229.202667,199.928 L228.082667,197.848 L228.066667,197.848 L228.130667,199.544 L228.130667,207 L226.914667,207 L226.914667,196.44 L228.498667,196.44 L232.898667,203.48 L234.034667,205.592 L234.050667,205.592 L233.986667,203.896 L233.986667,196.44 L235.202667,196.44 L235.202667,207 Z M242.573333,202.872 L242.573333,207 L241.293333,207 L241.293333,202.872 L237.517333,196.44 L239.037333,196.44 L241.933333,201.56 L244.829333,196.44 L246.349333,196.44 L242.573333,202.872 Z" id="Brooklyn,-NY" fill="#A4A4A4" sketch:type="MSShapeGroup"></path>
        </g>
    </g>
</svg>